<mxfile host="app.diagrams.net" modified="2021-05-30T17:08:39.071Z" agent="5.0 (Windows NT 10.0; Win64; x64) AppleWebKit/537.36 (KHTML, like Gecko) Chrome/91.0.4472.77 Safari/537.36" etag="AtzgctboToLPyu6_xQdr" version="14.7.3" type="github">
  <diagram id="oDxvOmwJR-q9NEZ43m0R" name="Page-1">
    <mxGraphModel dx="1185" dy="662" grid="1" gridSize="10" guides="1" tooltips="1" connect="1" arrows="1" fold="1" page="1" pageScale="1" pageWidth="827" pageHeight="1169" math="0" shadow="0">
      <root>
        <mxCell id="0" />
        <mxCell id="1" parent="0" />
        <mxCell id="8htNEsgyklg1_gUGZzlc-4" value="Staf&lt;br&gt;keuangan" style="shape=umlActor;verticalLabelPosition=bottom;verticalAlign=top;html=1;outlineConnect=0;" vertex="1" parent="1">
          <mxGeometry x="190" y="450" width="20" height="40" as="geometry" />
        </mxCell>
        <mxCell id="8htNEsgyklg1_gUGZzlc-5" value="Customer" style="shape=umlActor;verticalLabelPosition=bottom;verticalAlign=top;html=1;outlineConnect=0;" vertex="1" parent="1">
          <mxGeometry x="190" y="155" width="20" height="40" as="geometry" />
        </mxCell>
        <mxCell id="8htNEsgyklg1_gUGZzlc-6" value="Bagian&lt;br&gt;operasional" style="shape=umlActor;verticalLabelPosition=bottom;verticalAlign=top;html=1;outlineConnect=0;" vertex="1" parent="1">
          <mxGeometry x="190" y="320" width="20" height="40" as="geometry" />
        </mxCell>
        <mxCell id="8htNEsgyklg1_gUGZzlc-7" value="Staf&lt;br&gt;pemasaran" style="shape=umlActor;verticalLabelPosition=bottom;verticalAlign=top;html=1;outlineConnect=0;" vertex="1" parent="1">
          <mxGeometry x="520" y="310" width="20" height="40" as="geometry" />
        </mxCell>
        <mxCell id="8htNEsgyklg1_gUGZzlc-10" value="" style="rounded=1;whiteSpace=wrap;html=1;rotation=-90;arcSize=0;" vertex="1" parent="1">
          <mxGeometry x="165" y="235" width="410" height="230" as="geometry" />
        </mxCell>
        <mxCell id="8htNEsgyklg1_gUGZzlc-14" value="Kurir" style="shape=umlActor;verticalLabelPosition=bottom;verticalAlign=top;html=1;outlineConnect=0;" vertex="1" parent="1">
          <mxGeometry x="520" y="430" width="20" height="40" as="geometry" />
        </mxCell>
        <mxCell id="8htNEsgyklg1_gUGZzlc-15" value="Agen" style="shape=umlActor;verticalLabelPosition=bottom;verticalAlign=top;html=1;outlineConnect=0;" vertex="1" parent="1">
          <mxGeometry x="520" y="195" width="20" height="40" as="geometry" />
        </mxCell>
        <mxCell id="8htNEsgyklg1_gUGZzlc-16" value="&lt;font style=&quot;font-size: 9px&quot;&gt;Pembelian&lt;br&gt;cash &amp;amp; carry&lt;/font&gt;" style="ellipse;whiteSpace=wrap;html=1;" vertex="1" parent="1">
          <mxGeometry x="330" y="155" width="83.75" height="35" as="geometry" />
        </mxCell>
        <mxCell id="8htNEsgyklg1_gUGZzlc-17" value="" style="endArrow=none;html=1;exitX=0.5;exitY=0.5;exitDx=0;exitDy=0;exitPerimeter=0;entryX=0;entryY=0.5;entryDx=0;entryDy=0;" edge="1" parent="1" source="8htNEsgyklg1_gUGZzlc-5" target="8htNEsgyklg1_gUGZzlc-16">
          <mxGeometry width="50" height="50" relative="1" as="geometry">
            <mxPoint x="350" y="310" as="sourcePoint" />
            <mxPoint x="400" y="260" as="targetPoint" />
          </mxGeometry>
        </mxCell>
        <mxCell id="8htNEsgyklg1_gUGZzlc-18" value="&lt;font style=&quot;font-size: 9px&quot;&gt;Pembelian&lt;br&gt;Order&lt;br&gt;&lt;/font&gt;" style="ellipse;whiteSpace=wrap;html=1;" vertex="1" parent="1">
          <mxGeometry x="331.25" y="200" width="77.5" height="30" as="geometry" />
        </mxCell>
        <mxCell id="8htNEsgyklg1_gUGZzlc-19" value="" style="endArrow=none;html=1;entryX=0.5;entryY=0.5;entryDx=0;entryDy=0;entryPerimeter=0;exitX=1;exitY=0.5;exitDx=0;exitDy=0;" edge="1" parent="1" source="8htNEsgyklg1_gUGZzlc-18" target="8htNEsgyklg1_gUGZzlc-15">
          <mxGeometry width="50" height="50" relative="1" as="geometry">
            <mxPoint x="350" y="310" as="sourcePoint" />
            <mxPoint x="400" y="260" as="targetPoint" />
          </mxGeometry>
        </mxCell>
        <mxCell id="8htNEsgyklg1_gUGZzlc-20" value="&lt;font&gt;&lt;font style=&quot;font-size: 9px&quot;&gt;Invoice&lt;/font&gt;&lt;br&gt;&lt;/font&gt;" style="ellipse;whiteSpace=wrap;html=1;" vertex="1" parent="1">
          <mxGeometry x="334.75" y="470" width="77.5" height="30" as="geometry" />
        </mxCell>
        <mxCell id="8htNEsgyklg1_gUGZzlc-21" value="" style="endArrow=none;html=1;entryX=0;entryY=0.5;entryDx=0;entryDy=0;exitX=0.5;exitY=0.5;exitDx=0;exitDy=0;exitPerimeter=0;" edge="1" parent="1" source="8htNEsgyklg1_gUGZzlc-4" target="8htNEsgyklg1_gUGZzlc-20">
          <mxGeometry width="50" height="50" relative="1" as="geometry">
            <mxPoint x="350" y="380" as="sourcePoint" />
            <mxPoint x="400" y="330" as="targetPoint" />
          </mxGeometry>
        </mxCell>
        <mxCell id="8htNEsgyklg1_gUGZzlc-22" value="&lt;font&gt;&lt;font style=&quot;font-size: 9px&quot;&gt;Input pesanan&lt;/font&gt;&lt;br&gt;&lt;/font&gt;" style="ellipse;whiteSpace=wrap;html=1;" vertex="1" parent="1">
          <mxGeometry x="333" y="250" width="81" height="30" as="geometry" />
        </mxCell>
        <mxCell id="8htNEsgyklg1_gUGZzlc-23" value="&lt;font&gt;&lt;font style=&quot;font-size: 9px&quot;&gt;Konfirmasi&lt;br&gt;&lt;/font&gt;&lt;font style=&quot;font-size: 9px&quot;&gt;pesanan&lt;/font&gt;&lt;br&gt;&lt;/font&gt;" style="ellipse;whiteSpace=wrap;html=1;" vertex="1" parent="1">
          <mxGeometry x="329.75" y="290" width="87.5" height="40" as="geometry" />
        </mxCell>
        <mxCell id="8htNEsgyklg1_gUGZzlc-24" value="" style="endArrow=none;html=1;entryX=0.5;entryY=0.5;entryDx=0;entryDy=0;entryPerimeter=0;exitX=1;exitY=0.5;exitDx=0;exitDy=0;" edge="1" parent="1" source="8htNEsgyklg1_gUGZzlc-23" target="8htNEsgyklg1_gUGZzlc-7">
          <mxGeometry width="50" height="50" relative="1" as="geometry">
            <mxPoint x="350" y="370" as="sourcePoint" />
            <mxPoint x="400" y="320" as="targetPoint" />
          </mxGeometry>
        </mxCell>
        <mxCell id="8htNEsgyklg1_gUGZzlc-25" value="" style="endArrow=none;html=1;exitX=1;exitY=0.5;exitDx=0;exitDy=0;entryX=0.5;entryY=0.5;entryDx=0;entryDy=0;entryPerimeter=0;" edge="1" parent="1" source="8htNEsgyklg1_gUGZzlc-22" target="8htNEsgyklg1_gUGZzlc-7">
          <mxGeometry width="50" height="50" relative="1" as="geometry">
            <mxPoint x="350" y="370" as="sourcePoint" />
            <mxPoint x="400" y="320" as="targetPoint" />
          </mxGeometry>
        </mxCell>
        <mxCell id="8htNEsgyklg1_gUGZzlc-26" value="&lt;font style=&quot;font-size: 9px&quot;&gt;&lt;font style=&quot;font-size: 9px&quot;&gt;mempersiapkan&lt;br&gt;&lt;/font&gt;pesanan&lt;br&gt;&lt;/font&gt;" style="ellipse;whiteSpace=wrap;html=1;" vertex="1" parent="1">
          <mxGeometry x="329.75" y="340" width="87.5" height="40" as="geometry" />
        </mxCell>
        <mxCell id="8htNEsgyklg1_gUGZzlc-27" value="&lt;font&gt;&lt;font style=&quot;font-size: 9px&quot;&gt;update stok&lt;/font&gt;&lt;br&gt;&lt;/font&gt;" style="ellipse;whiteSpace=wrap;html=1;" vertex="1" parent="1">
          <mxGeometry x="331.5" y="390" width="84" height="30" as="geometry" />
        </mxCell>
        <mxCell id="8htNEsgyklg1_gUGZzlc-28" value="&lt;font&gt;&lt;font style=&quot;font-size: 9px&quot;&gt;Pengiriman&lt;br&gt;&lt;/font&gt;&lt;font style=&quot;font-size: 9px&quot;&gt;pesanan&lt;/font&gt;&lt;br&gt;&lt;/font&gt;" style="ellipse;whiteSpace=wrap;html=1;" vertex="1" parent="1">
          <mxGeometry x="331.5" y="430" width="84" height="30" as="geometry" />
        </mxCell>
        <mxCell id="8htNEsgyklg1_gUGZzlc-31" value="" style="endArrow=none;html=1;exitX=1;exitY=0.5;exitDx=0;exitDy=0;entryX=0.5;entryY=0.5;entryDx=0;entryDy=0;entryPerimeter=0;" edge="1" parent="1" source="8htNEsgyklg1_gUGZzlc-28" target="8htNEsgyklg1_gUGZzlc-14">
          <mxGeometry width="50" height="50" relative="1" as="geometry">
            <mxPoint x="350" y="430" as="sourcePoint" />
            <mxPoint x="400" y="380" as="targetPoint" />
          </mxGeometry>
        </mxCell>
        <mxCell id="8htNEsgyklg1_gUGZzlc-32" value="" style="endArrow=none;html=1;entryX=0;entryY=0.5;entryDx=0;entryDy=0;exitX=0.5;exitY=0.5;exitDx=0;exitDy=0;exitPerimeter=0;" edge="1" parent="1" source="8htNEsgyklg1_gUGZzlc-6" target="8htNEsgyklg1_gUGZzlc-26">
          <mxGeometry width="50" height="50" relative="1" as="geometry">
            <mxPoint x="350" y="430" as="sourcePoint" />
            <mxPoint x="400" y="380" as="targetPoint" />
          </mxGeometry>
        </mxCell>
        <mxCell id="8htNEsgyklg1_gUGZzlc-33" value="" style="endArrow=none;html=1;entryX=0;entryY=0.5;entryDx=0;entryDy=0;exitX=0.5;exitY=0.5;exitDx=0;exitDy=0;exitPerimeter=0;" edge="1" parent="1" source="8htNEsgyklg1_gUGZzlc-6" target="8htNEsgyklg1_gUGZzlc-27">
          <mxGeometry width="50" height="50" relative="1" as="geometry">
            <mxPoint x="350" y="430" as="sourcePoint" />
            <mxPoint x="400" y="380" as="targetPoint" />
          </mxGeometry>
        </mxCell>
        <mxCell id="8htNEsgyklg1_gUGZzlc-34" value="&lt;font style=&quot;font-size: 9px&quot;&gt;&lt;font style=&quot;font-size: 9px&quot;&gt;laporan&lt;br&gt;&lt;/font&gt;penjualan&lt;br&gt;&lt;/font&gt;" style="ellipse;whiteSpace=wrap;html=1;" vertex="1" parent="1">
          <mxGeometry x="334.75" y="510" width="77.5" height="30" as="geometry" />
        </mxCell>
        <mxCell id="8htNEsgyklg1_gUGZzlc-35" value="" style="endArrow=none;html=1;entryX=0;entryY=0.5;entryDx=0;entryDy=0;" edge="1" parent="1" target="8htNEsgyklg1_gUGZzlc-34">
          <mxGeometry width="50" height="50" relative="1" as="geometry">
            <mxPoint x="200" y="470" as="sourcePoint" />
            <mxPoint x="400" y="430" as="targetPoint" />
          </mxGeometry>
        </mxCell>
      </root>
    </mxGraphModel>
  </diagram>
</mxfile>
